<?xml version="1.0"?>
<svg width="24" height="24" xmlns="http://www.w3.org/2000/svg" xmlns:svg="http://www.w3.org/2000/svg">
 <g class="layer">
  <title>Layer 1</title>
  <path d="m683.2,290.7c0,-0.55 0.45,-1 1,-1c0.55,0 1,0.45 1,1l0,2c0,0.55 -0.45,1 -1,1c-0.55,0 -1,-0.45 -1,-1l0,-2z" fill="#0F0F0F" id="svg_29"/>
  <path clip-rule="evenodd" d="m690.2,301.7c0,3.31 -2.69,6 -6,6c-3.31,0 -6,-2.69 -6,-6c0,-3.31 2.69,-6 6,-6c3.31,0 6,2.69 6,6zm-9.94,0c0,2.18 1.76,3.94 3.94,3.94c2.18,0 3.94,-1.76 3.94,-3.94c0,-2.18 -1.76,-3.94 -3.94,-3.94c-2.18,0 -3.94,1.76 -3.94,3.94z" fill="#0F0F0F" fill-rule="evenodd" id="svg_28"/>
  <path d="m692.69,293.21c-0.4,-0.39 -1.03,-0.39 -1.42,0l-1.41,1.42c-0.39,0.39 -0.39,1.02 0,1.41c0.39,0.39 1.02,0.39 1.41,0l1.42,-1.41c0.39,-0.39 0.39,-1.02 0,-1.42z" fill="#0F0F0F" id="svg_27"/>
  <path d="m673.2,302.7c-0.55,0 -1,-0.45 -1,-1c0,-0.55 0.45,-1 1,-1l2,0c0.55,0 1,0.45 1,1c0,0.55 -0.45,1 -1,1l-2,0z" fill="#0F0F0F" id="svg_26"/>
  <path d="m675.71,293.21c-0.39,0.4 -0.39,1.03 0,1.42l1.42,1.41c0.39,0.39 1.02,0.39 1.41,0c0.39,-0.39 0.39,-1.02 0,-1.41l-1.41,-1.42c-0.39,-0.39 -1.02,-0.39 -1.42,0z" fill="#0F0F0F" id="svg_25"/>
  <path d="m683.2,310.7c0,-0.55 0.45,-1 1,-1c0.55,0 1,0.45 1,1l0,2c0,0.55 -0.45,1 -1,1c-0.55,0 -1,-0.45 -1,-1l0,-2z" fill="#0F0F0F" id="svg_24"/>
  <path d="m678.54,307.36c-0.39,-0.39 -1.02,-0.39 -1.41,0l-1.42,1.41c-0.39,0.39 -0.39,1.02 0,1.42c0.4,0.39 1.03,0.39 1.42,0l1.41,-1.42c0.39,-0.39 0.39,-1.02 0,-1.41z" fill="#0F0F0F" id="svg_23"/>
  <path d="m693.2,302.7c-0.55,0 -1,-0.45 -1,-1c0,-0.55 0.45,-1 1,-1l2,0c0.55,0 1,0.45 1,1c0,0.55 -0.45,1 -1,1l-2,0z" fill="#0F0F0F" id="svg_22"/>
  <path d="m689.86,307.36c-0.39,0.39 -0.39,1.02 0,1.41l1.41,1.42c0.39,0.39 1.02,0.39 1.42,0c0.39,-0.4 0.39,-1.03 0,-1.42l-1.42,-1.41c-0.39,-0.39 -1.02,-0.39 -1.41,0z" fill="#0F0F0F" id="svg_21"/>
  <path d="m11.06,1.03c0,-0.55 0.45,-1 1,-1c0.55,0 1,0.45 1,1l0,2c0,0.55 -0.45,1 -1,1c-0.55,0 -1,-0.45 -1,-1l0,-2z" fill="#0F0F0F" id="svg_47"/>
  <path clip-rule="evenodd" d="m18.06,12.03c0,3.31 -2.69,6 -6,6c-3.31,0 -6,-2.69 -6,-6c0,-3.31 2.69,-6 6,-6c3.31,0 6,2.69 6,6zm-9.94,0c0,2.18 1.76,3.94 3.94,3.94c2.18,0 3.94,-1.76 3.94,-3.94c0,-2.18 -1.76,-3.94 -3.94,-3.94c-2.18,0 -3.94,1.76 -3.94,3.94z" fill="#0F0F0F" fill-rule="evenodd" id="svg_46"/>
  <path d="m20.55,3.54c-0.4,-0.39 -1.03,-0.39 -1.42,0l-1.41,1.42c-0.39,0.39 -0.39,1.02 0,1.41c0.39,0.39 1.02,0.39 1.41,0l1.42,-1.41c0.39,-0.39 0.39,-1.02 0,-1.42z" fill="#0F0F0F" id="svg_45"/>
  <path d="m1.06,13.03c-0.55,0 -1,-0.45 -1,-1c0,-0.55 0.45,-1 1,-1l2,0c0.55,0 1,0.45 1,1c0,0.55 -0.45,1 -1,1l-2,0z" fill="#0F0F0F" id="svg_44"/>
  <path d="m3.57,3.54c-0.39,0.4 -0.39,1.03 0,1.42l1.42,1.41c0.39,0.39 1.02,0.39 1.41,0c0.39,-0.39 0.39,-1.02 0,-1.41l-1.41,-1.42c-0.39,-0.39 -1.02,-0.39 -1.42,0z" fill="#0F0F0F" id="svg_43"/>
  <path d="m11.06,21.03c0,-0.55 0.45,-1 1,-1c0.55,0 1,0.45 1,1l0,2c0,0.55 -0.45,1 -1,1c-0.55,0 -1,-0.45 -1,-1l0,-2z" fill="#0F0F0F" id="svg_42"/>
  <path d="m6.4,17.69c-0.39,-0.39 -1.02,-0.39 -1.41,0l-1.42,1.41c-0.39,0.39 -0.39,1.02 0,1.42c0.4,0.39 1.03,0.39 1.42,0l1.41,-1.42c0.39,-0.39 0.39,-1.02 0,-1.41z" fill="#0F0F0F" id="svg_41"/>
  <path d="m21.06,13.03c-0.55,0 -1,-0.45 -1,-1c0,-0.55 0.45,-1 1,-1l2,0c0.55,0 1,0.45 1,1c0,0.55 -0.45,1 -1,1l-2,0z" fill="#0F0F0F" id="svg_40"/>
  <path d="m17.72,17.69c-0.39,0.39 -0.39,1.02 0,1.41l1.41,1.42c0.39,0.39 1.02,0.39 1.42,0c0.39,-0.4 0.39,-1.03 0,-1.42l-1.42,-1.41c-0.39,-0.39 -1.02,-0.39 -1.41,0z" fill="#0F0F0F" id="svg_39"/>
 </g>
</svg>